<?xml version="1.0" standalone="no"?>
<!DOCTYPE svg PUBLIC "-//W3C//DTD SVG 20010904//EN"
 "http://www.w3.org/TR/2001/REC-SVG-20010904/DTD/svg10.dtd">
<svg version="1.0" xmlns="http://www.w3.org/2000/svg"
 width="391.000000pt" height="391.000000pt" viewBox="0 0 391.000000 391.000000"
 preserveAspectRatio="xMidYMid meet">
<metadata>
Created by potrace 1.14, written by Peter Selinger 2001-2017
</metadata>
<g transform="translate(0.000000,391.000000) scale(0.100000,-0.100000)"
fill="#000000" stroke="none">
<path d="M55 3835 l-25 -24 0 -351 0 -351 25 -24 24 -25 904 0 c900 0 904 0
931 21 l26 20 0 355 0 355 -25 24 -24 25 -906 0 -906 0 -24 -25z"/>
<path d="M2146 3839 l-26 -20 0 -359 0 -359 26 -20 c27 -21 32 -21 851 -21
l824 0 24 25 25 24 0 351 0 351 -25 24 -24 25 -824 0 c-819 0 -824 0 -851 -21z"/>
<path d="M55 2875 l-25 -24 0 -351 0 -351 25 -24 24 -25 431 0 431 0 24 25 25
24 0 351 0 351 -25 24 -24 25 -431 0 -431 0 -24 -25z"/>
<path d="M2620 2724 c-205 -54 -368 -216 -415 -415 -66 -283 102 -577 382
-665 78 -24 207 -29 287 -10 254 60 436 291 436 552 0 137 -64 287 -166 388
-136 137 -347 197 -524 150z"/>
<path d="M336 809 c-62 -15 -153 -68 -197 -116 -22 -24 -55 -74 -72 -111 -29
-61 -32 -76 -32 -163 0 -90 2 -99 37 -171 70 -140 187 -216 349 -226 l89 -5 0
402 0 401 -67 -1 c-38 -1 -85 -5 -107 -10z"/>
<path d="M670 420 l0 -400 960 0 960 0 0 400 0 400 -960 0 -960 0 0 -400z"/>
<path d="M2750 420 l0 -403 89 5 c162 10 279 86 349 226 35 72 37 81 37 172 0
91 -2 100 -37 172 -70 140 -187 216 -349 226 l-89 5 0 -403z"/>
</g>
</svg>
